<svg width="619" height="828" viewBox="0 0 619 828" fill="none" xmlns="http://www.w3.org/2000/svg">
<path d="M445.827 566.907L442.99 567.882L443.008 567.936L443.029 567.99L445.827 566.907ZM422.63 534.872L420.659 537.135L420.68 537.153L420.702 537.171L422.63 534.872ZM294.493 475.775L293.57 478.629L293.581 478.633L293.592 478.637L294.493 475.775ZM190.658 436.008L189.416 438.739L189.428 438.745L190.658 436.008ZM104.497 384.643L102.614 386.979L102.633 386.994L102.653 387.009L104.497 384.643ZM45.9517 315.604L43.3067 317.019L43.3144 317.034L43.3222 317.048L45.9517 315.604ZM47.0563 133.34L49.6954 134.767L49.6994 134.76L49.7034 134.752L47.0563 133.34ZM108.915 62.6442L110.694 65.0602L110.705 65.0523L110.715 65.0442L108.915 62.6442ZM202.809 16.8022L201.965 13.9232L201.957 13.9255L202.809 16.8022ZM580.591 120.637L578.08 122.278L578.086 122.287L578.091 122.296L580.591 120.637ZM617.596 248.222V251.222H620.596V248.222H617.596ZM453.007 248.222H450.007V251.222H453.007V248.222ZM438.094 186.362L435.444 187.769L435.462 187.801L435.48 187.833L438.094 186.362ZM393.909 143.834L392.508 146.487L392.518 146.492L392.528 146.498L393.909 143.834ZM248.098 141.625L249.312 144.369L249.334 144.359L249.356 144.349L248.098 141.625ZM205.018 176.421L207.514 178.085L207.524 178.07L207.533 178.056L205.018 176.421ZM200.599 262.029L198.027 263.573L198.046 263.604L198.065 263.635L200.599 262.029ZM231.529 292.959L233.254 290.504L231.529 292.959ZM350.829 344.876L349.941 347.742L349.95 347.745L349.96 347.748L350.829 344.876ZM466.262 389.614L464.921 392.297L464.933 392.303L466.262 389.614ZM601.027 515.541L598.278 516.742L601.027 515.541ZM538.615 768.501L536.826 766.093L538.615 768.501ZM208.884 811.582L208.086 814.473L208.098 814.477L208.111 814.48L208.884 811.582ZM103.392 763.53L101.701 766.008L101.708 766.013L101.715 766.017L103.392 763.53ZM0.109642 564.145V561.145H-2.89036V564.145H0.109642ZM166.356 564.145H169.356V561.145H166.356V564.145ZM210.541 669.637L208.721 672.022L208.736 672.033L208.751 672.044L210.541 669.637ZM261.354 692.834L260.639 695.748L260.652 695.751L261.354 692.834ZM397.223 687.863L396.035 685.109L396.025 685.113L396.015 685.117L397.223 687.863ZM438.647 654.172L436.121 652.553L436.106 652.576L436.092 652.6L438.647 654.172ZM455.454 605.568C455.454 590.901 453.198 577.638 448.624 565.824L443.029 567.99C447.293 579.004 449.454 591.516 449.454 605.568H455.454ZM448.664 565.931C444.404 553.54 436.307 542.429 424.557 532.574L420.702 537.171C431.781 546.463 439.148 556.707 442.99 567.882L448.664 565.931ZM424.6 532.61C412.895 522.415 396.603 512.518 375.842 502.879L373.315 508.321C393.793 517.829 409.536 527.446 420.659 537.135L424.6 532.61ZM375.842 502.879C355.061 493.231 328.232 483.244 295.393 472.913L293.592 478.637C326.295 488.925 352.856 498.822 373.315 508.321L375.842 502.879ZM295.415 472.92C259.06 461.169 224.552 447.952 191.888 433.272L189.428 438.745C222.305 453.521 257.02 466.815 293.57 478.629L295.415 472.92ZM191.899 433.277C159.686 418.635 131.173 401.631 106.341 382.277L102.653 387.009C127.898 406.685 156.825 423.925 189.416 438.739L191.899 433.277ZM106.379 382.307C81.995 362.654 62.7413 339.938 48.5811 314.16L43.3222 317.048C57.8824 343.555 77.6588 366.865 102.614 386.979L106.379 382.307ZM48.5967 314.188C34.874 288.548 27.9638 258.673 27.9638 224.472H21.9638C21.9638 259.495 29.0455 290.374 43.3067 317.019L48.5967 314.188ZM27.9638 224.472C27.9638 191.421 35.223 161.541 49.6954 134.767L44.4172 131.914C29.4328 159.635 21.9638 190.509 21.9638 224.472H27.9638ZM49.7034 134.752C64.2099 107.552 84.5246 84.3237 110.694 65.0602L107.137 60.2282C80.2842 79.9948 59.3594 103.897 44.4092 131.929L49.7034 134.752ZM110.715 65.0442C136.905 45.4019 167.872 30.2693 203.66 19.6789L201.957 13.9255C165.577 24.6912 133.948 40.1199 107.115 60.2442L110.715 65.0442ZM203.652 19.6812C239.795 9.09396 279.457 3.7851 322.661 3.7851V-2.2149C278.967 -2.2149 238.728 3.1543 201.965 13.9232L203.652 19.6812ZM322.661 3.7851C381.583 3.7851 432.853 14.3976 476.555 35.5203L479.166 30.1182C434.498 8.52866 382.302 -2.2149 322.661 -2.2149V3.7851ZM476.555 35.5203C520.303 56.6648 554.107 85.5922 578.08 122.278L583.103 118.996C558.472 81.3038 523.789 51.686 479.166 30.1182L476.555 35.5203ZM578.091 122.296C602.411 158.957 614.596 200.899 614.596 248.222H620.596C620.596 199.809 608.111 156.696 583.091 118.979L578.091 122.296ZM617.596 245.222H453.007V251.222H617.596V245.222ZM456.007 248.222C456.007 224.225 450.942 203.083 440.709 184.892L435.48 187.833C445.13 204.99 450.007 225.087 450.007 248.222H456.007ZM440.744 184.956C430.858 166.324 415.66 151.733 395.29 141.171L392.528 146.498C411.925 156.555 426.184 170.316 435.444 187.769L440.744 184.956ZM395.311 141.182C375.239 130.578 350.049 125.37 319.899 125.37V131.37C349.4 131.37 373.549 136.471 392.508 146.487L395.311 141.182ZM319.899 125.37C290.893 125.37 266.498 129.829 246.841 138.901L249.356 144.349C267.993 135.747 291.465 131.37 319.899 131.37V125.37ZM246.885 138.881C227.309 147.54 212.45 159.482 202.503 174.786L207.533 178.056C216.733 163.902 230.594 152.648 249.312 144.369L246.885 138.881ZM202.522 174.757C192.604 189.633 187.658 206.418 187.658 225.024H193.658C193.658 207.546 198.285 191.929 207.514 178.085L202.522 174.757ZM187.658 225.024C187.658 239.159 191.103 252.033 198.027 263.573L203.172 260.486C196.84 249.933 193.658 238.137 193.658 225.024H187.658ZM198.065 263.635C205.322 275.092 215.942 285.673 229.804 295.414L233.254 290.504C219.868 281.098 209.869 271.059 203.134 260.424L198.065 263.635ZM229.804 295.414C243.642 305.137 260.591 314.254 280.614 322.782L282.965 317.262C263.221 308.853 246.664 299.928 233.254 290.504L229.804 295.414ZM280.614 322.782C300.612 331.3 323.725 339.619 349.941 347.742L351.717 342.011C325.647 333.933 302.734 325.682 282.965 317.262L280.614 322.782ZM349.96 347.748C393.651 360.965 431.964 375.819 464.921 392.297L467.604 386.931C434.283 370.27 395.641 355.299 351.697 342.005L349.96 347.748ZM464.933 392.303C498.24 408.774 525.974 427.217 548.185 447.608L552.243 443.188C529.532 422.338 501.299 403.593 467.592 386.925L464.933 392.303ZM548.185 447.608C570.36 467.964 587.042 491.008 598.278 516.742L603.776 514.341C592.183 487.789 574.99 464.07 552.243 443.188L548.185 447.608ZM598.278 516.742C609.502 542.45 615.149 571.672 615.149 604.464H621.149C621.149 570.978 615.381 540.919 603.776 514.341L598.278 516.742ZM615.149 604.464C615.149 639.046 608.417 669.88 595.023 697.03L600.403 699.684C614.257 671.603 621.149 639.841 621.149 604.464H615.149ZM595.023 697.03C581.618 724.201 562.236 747.217 536.826 766.093L540.404 770.909C566.544 751.491 586.56 727.745 600.403 699.684L595.023 697.03ZM536.826 766.093C511.39 784.989 480.99 799.386 445.575 809.244L447.184 815.024C483.201 804.999 514.292 790.307 540.404 770.909L536.826 766.093ZM445.575 809.244C410.165 819.1 370.491 824.046 326.527 824.046V830.046C370.934 830.046 411.161 825.051 447.184 815.024L445.575 809.244ZM326.527 824.046C287.023 824.046 248.069 818.926 209.657 808.683L208.111 814.48C247.024 824.857 286.498 830.046 326.527 830.046V824.046ZM209.683 808.69C171.318 798.094 136.453 782.209 105.07 761.043L101.715 766.017C133.663 787.564 169.126 803.713 208.086 814.473L209.683 808.69ZM105.083 761.052C74.1662 739.956 49.4416 713.051 30.8877 680.309L25.6676 683.267C44.671 716.802 70.0228 744.392 101.701 766.008L105.083 761.052ZM30.8877 680.309C12.409 647.699 3.10964 609.015 3.10964 564.145H-2.89036C-2.89036 609.855 6.5889 649.599 25.6676 683.267L30.8877 680.309ZM0.109642 567.145H166.356V561.145H0.109642V567.145ZM163.356 564.145C163.356 589.476 167.265 611.092 175.216 628.885L180.694 626.437C173.179 609.619 169.356 588.89 169.356 564.145H163.356ZM175.216 628.885C183.136 646.612 194.3 661.016 208.721 672.022L212.361 667.252C198.798 656.901 188.238 643.322 180.694 626.437L175.216 628.885ZM208.751 672.044C223.47 682.989 240.783 690.877 260.639 695.748L262.069 689.92C242.895 685.217 226.333 677.641 212.331 667.229L208.751 672.044ZM260.652 695.751C280.797 700.6 302.76 703.014 326.527 703.014V697.014C303.163 697.014 281.678 694.641 262.056 689.917L260.652 695.751ZM326.527 703.014C355.499 703.014 379.514 698.933 398.431 690.609L396.015 685.117C378.112 692.995 354.996 697.014 326.527 697.014V703.014ZM398.411 690.618C417.634 682.326 431.978 670.733 441.202 655.744L436.092 652.6C427.641 666.331 414.37 677.199 396.035 685.109L398.411 690.618ZM441.172 655.791C450.705 640.919 455.454 624.15 455.454 605.568H449.454C449.454 623.072 444.998 638.705 436.121 652.553L441.172 655.791Z" fill="#156963"/>
</svg>
